<svg width="936" height="802" viewBox="0 0 936 802" fill="none" xmlns="http://www.w3.org/2000/svg">
<path d="M534.5 428.5C531.175 427.705 528.268 429.437 525.549 430.614C511.022 436.904 498.343 446.094 486.494 456.493C482.946 459.607 482.044 464.277 479.625 468.08C473.417 477.841 468.058 488.142 461.884 497.927C459.561 501.609 458.457 505.531 457.584 509.518C455.029 521.189 454.884 533.184 453.335 544.978C451.586 558.296 451.886 571.702 450.444 584.994C449.107 597.311 449.446 609.664 448.955 621.998C448.215 640.584 450.738 659.003 451.313 677.506C451.601 686.79 450.392 696.15 450.484 705.5C450.518 708.917 450.619 712.342 452.03 715.486C454.958 722.009 453.861 728.773 453.489 735.499C453.212 740.502 452.833 745.5 452.5 750.5" stroke="black" stroke-width="6" stroke-linecap="round" stroke-linejoin="round"/>
<path d="M411.5 224.5C414.063 226.308 426 255.5 426 255.5C426 255.5 426 261 425 270.5C424.498 275.267 425 280.522 425 285C425.597 292.522 426.318 299.72 427.5 306.5C428.309 311.146 428.104 315.774 430.515 320.493C436.997 333.183 442.97 346.123 450.94 358.04C462.677 375.588 477.027 390.604 494.086 402.881C501.724 408.378 510.624 412.153 520.018 413.362C533.55 415.103 542.265 430.762 547.5 442C538.5 449.5 527.159 462.547 520.255 466.58C513.998 470.235 510.373 475.069 507.637 480.815C503.193 490.149 500.65 500.156 499.446 510.494C498.831 515.778 495.778 520.409 494.576 525.518C491.348 539.234 488.325 552.958 486.132 566.942C484.016 580.44 484.978 594.331 480.64 607.546C479.538 610.906 480.025 614.833 480.022 618.5C479.987 656.833 480.159 695.168 479.886 733.499C479.819 742.838 478.072 752.153 477.582 761.504C477.181 769.15 477.5 776.833 477.5 784.5" stroke="black" stroke-width="6" stroke-linecap="round" stroke-linejoin="round"/>
<path d="M795.5 530.5C800.805 531.315 804.104 535.63 808.397 538.174C815.77 542.544 822.872 547.564 829.395 553.123C835.906 558.67 840.924 565.726 845.501 572.999C856.239 590.065 864.534 608.292 872.153 626.938C877.529 640.094 884.554 652.567 890.429 665.532C895.025 675.671 898.61 686.224 901.514 696.996C904.865 709.427 910.466 720.946 915.973 732.513C922.224 745.641 927.071 759.347 931.878 773.043C932.885 775.914 932.333 779.333 932.5 782.5" stroke="black" stroke-width="6" stroke-linecap="round" stroke-linejoin="round"/>
<path d="M196.5 577.5C189.916 588.276 190.218 599.612 192.882 611.526C196.041 625.654 200.238 639.516 202.228 653.969C203.937 666.38 206.809 678.603 211.158 690.624C215.809 703.478 222.25 715.524 226.583 728.472C229.168 736.2 229.868 744.465 233.891 751.81C236.094 755.833 237.947 760.289 241.142 763.352C246.189 768.19 249.094 774.212 252.475 780.015C256.163 786.345 260.941 791.83 265.446 797.543C266.896 799.381 268.526 798.049 270 798.5" stroke="black" stroke-width="6" stroke-linecap="round" stroke-linejoin="round"/>
<path d="M831.5 449.75C832.159 449.896 832.922 451.34 833.453 449.982C835.119 445.72 839.176 444.28 842.512 442.017C853.582 434.509 865.347 427.909 874.926 418.425C878.883 414.508 883.597 410.788 883.075 403.994C882.635 398.259 875.643 390.291 870.004 389.47C856.7 387.531 843.317 388.092 830.007 388.658C818.579 389.144 807.297 391.547 795.971 393.318C786.183 394.848 776.356 396.335 766.523 397.673C746.993 400.33 727.523 403.038 708.394 408.638C692.011 413.434 674.893 415.883 658.511 421.035C651.07 423.376 643.358 424.725 636.385 428.804C632.524 431.063 627.555 431.994 622.989 432.37C611.428 433.325 600.965 437.573 590.502 442.006C589.817 442.296 589.164 442.962 588.5 442.956C575.165 442.856 560.213 459.07 549.5 466" stroke="black" stroke-width="6" stroke-linecap="round" stroke-linejoin="round"/>
<path d="M265.5 485.25C269.37 491.667 276.034 495.684 279.984 502.01C287.767 514.479 298.385 524.805 306.441 537.039C311.529 544.765 313.551 554.201 319.508 561.493C329.238 573.403 332.815 588.551 340.594 601.443C347.406 612.732 353.475 624.3 358.742 636.395C360.348 640.082 363.021 644.234 367.5 646" stroke="black" stroke-width="6" stroke-linecap="round" stroke-linejoin="round"/>
<path d="M816.5 686.5C819.707 686.494 818.393 684.595 818.011 682.997C815.585 672.854 811.398 663.312 808.023 653.492C804.456 643.117 801.665 632.495 798.391 622.034C792.6 603.526 787.4 584.757 779.38 567.054C774.328 555.902 767.055 545.927 760.204 535.781C759.983 535.453 759.083 535.583 758.5 535.5" stroke="black" stroke-width="6" stroke-linecap="round" stroke-linejoin="round"/>
<path d="M483 459.476C478.385 457.654 474.758 461.471 470.936 463.991C466.677 466.799 462.478 469.797 458.224 472.621C452.913 476.147 448.085 481.166 442.978 485.365C430.119 495.939 420.341 511.241 411.192 527.666C407.197 534.837 403.674 542.526 399.253 549.261C395.658 554.738 393.954 562.168 391.255 568.6C389.066 573.814 386.506 586.743 386 593" stroke="black" stroke-width="6" stroke-linecap="round" stroke-linejoin="round"/>
<path d="M632.5 605.5C630.443 611.727 632.717 617.866 633.227 623.981C633.476 626.954 634.01 629.974 633.982 633C633.862 646.013 634.921 658.991 635.219 671.995C635.49 683.846 638.395 695.502 641.483 707.004C645.551 722.153 649.84 737.257 653.288 752.548C654.291 756.997 654.631 761.824 654.954 766.503C655.145 769.284 655.866 771.767 657.414 774.058C660.355 773.855 661.351 771.851 662 769.5" stroke="black" stroke-width="6" stroke-linecap="round" stroke-linejoin="round"/>
<path d="M477.5 71.5C472.747 69.7418 468.478 66.5011 462.999 66.9849C455.577 67.6401 448.685 69.5832 442.468 73.954C435.429 78.9026 427.946 83.1059 421.381 88.8639C413.791 95.5202 409.563 104.205 404.429 112.456C399.528 120.332 396.801 129.433 390.518 136.516C383.519 144.408 374.692 150.067 366.471 156.463C364.752 157.801 363.087 159.087 362 161" stroke="black" stroke-width="6" stroke-linecap="round" stroke-linejoin="round"/>
<path d="M4.49997 477C2.49997 482.5 6.00003 488.5 6 491.5C8 500.5 10.8142 504.995 15.8513 512.598C19.6055 518.265 22.2131 524.741 24.9427 531.025C27.9337 537.911 31.4864 544.452 36.5613 549.943C41.8346 555.649 46.9713 561.527 52.9974 566.503C57.852 570.512 63.5673 572.858 69.518 574.432C78.4992 576.806 95.0938 576.233 104.5 574.432" stroke="black" stroke-width="6" stroke-linecap="round" stroke-linejoin="round"/>
<path d="M386 593C385.5 596 384.891 598.932 384.223 601.479C383.18 605.453 382.075 609.519 379.759 612.971C376.669 617.574 376.856 622.939 375.854 628.01C374.701 633.85 373.608 639.683 370.773 644.984C369.564 647.245 369.966 649.099 370.673 651.537C375.785 669.174 383.725 685.737 389.835 702.988C395.102 717.86 401.44 732.298 408.334 746.484C409.507 748.899 408.959 752.143 411.802 753.75" stroke="black" stroke-width="6" stroke-linecap="round" stroke-linejoin="round"/>
<path d="M832.5 218.5C822.98 227.138 810.122 228.063 798.965 232.92C794.382 234.915 790.13 237.589 785.042 238.695C781.407 239.484 780.502 243.696 782.539 246.976C783.657 248.776 785.153 250.345 786.502 251.998C794.85 262.228 793.949 277.2 788.483 285.489C787.771 286.569 786.878 288.323 785.993 288.37C778.622 288.766 772.193 293.993 764.5 292.5" stroke="black" stroke-width="6" stroke-linecap="round" stroke-linejoin="round"/>
<path d="M694 57C694.822 56.4972 694.648 55.1646 694.464 55.0758C689.852 52.8614 687.434 48.3505 684.126 44.8801C679.038 39.5419 672.301 37.7977 665.976 37.3035C653.126 36.2993 641.627 32.5095 630.997 25.5043C624.721 21.3684 617.437 21.7434 610.499 21.6957C605.582 21.6618 600.866 21.7388 595.962 20.673C590.663 19.5212 585.102 20.5357 580.023 22.5572C571.789 25.8339 563.2 27.2279 554.521 28.6283C548.155 29.6554 541.692 30.2597 535.465 32.3974C528.899 34.6514 521.803 34.0934 514.995 34.2337C510.736 34.3215 506.324 34.2061 501.998 34.1077C495.15 33.9519 490.039 31.6514 486.357 25.5868C484.904 23.1941 482.774 20.9991 481.609 18.4504C480.007 14.9453 475.889 14.8713 474 12" stroke="black" stroke-width="6" stroke-linecap="round" stroke-linejoin="round"/>
<path d="M253 488.5C254.849 495.503 251.755 501.588 248.909 507.456C242.777 520.098 238.07 533.244 233.323 546.436C230.264 554.941 225.419 562.795 221.539 571.019C219.967 574.35 218.61 577.815 218 581.5" stroke="black" stroke-width="6" stroke-linecap="round" stroke-linejoin="round"/>
<path d="M439.5 195.5C441.5 187.741 455.862 176.276 461 170.5C468.073 162.548 480.597 155.293 489.556 149.081C501.994 140.458 511.98 128.693 525.487 121.476C531.631 118.192 539.204 118.153 544.5 113" stroke="black" stroke-width="6" stroke-linecap="round" stroke-linejoin="round"/>
<path d="M520.5 467.5C522.167 471.833 523.979 476.118 525.454 480.516C526.623 484.003 528.694 486.548 532.01 487.976C536.293 489.82 538.881 494.097 543.445 495.661C544.563 496.044 545.862 498.07 545.492 499.999C544.122 507.14 545.054 514.342 544.793 521.492C544.451 530.881 545.413 540.173 545.41 549.5C545.404 566.909 547.886 584.139 548.721 601.489C549.138 610.139 550.511 618.78 550.522 627.5C550.523 628.84 549.77 630.876 552.5 630.5" stroke="black" stroke-width="6" stroke-linecap="round" stroke-linejoin="round"/>
<path d="M534.5 118.5C536.083 124.278 531.864 128.534 530.365 133.459C526.726 145.422 524.623 157.546 523.276 169.976C522.314 178.867 522.382 187.711 522.715 196.492C523.089 206.339 523.889 223.342 534 229.5" stroke="black" stroke-width="6" stroke-linecap="round" stroke-linejoin="round"/>
<path d="M828.5 131.5C823 130.5 814.413 127.884 810.491 127.649C804.232 127.273 798.715 125.061 794.137 121.332C791.041 118.809 787.741 116.594 784.401 114.672C780.756 112.574 777.986 110.006 776.034 106.481C774.162 103.101 771.702 100.599 768.016 99.208C765.269 98.1713 762.574 96.9134 760.019 95.4663C754.562 92.3752 749.481 93.2878 744.5 96.5" stroke="black" stroke-width="6" stroke-linecap="round" stroke-linejoin="round"/>
<path d="M550.75 631C551.5 639.167 551.995 647.368 553.1 655.486C553.713 659.988 553.946 664.564 554.242 669.017C554.946 679.604 556.622 690.049 558.215 700.467C559.289 707.489 560.751 714.562 562.555 721.486C564.211 727.841 564.417 734.125 563 740.5" stroke="black" stroke-width="6" stroke-linecap="round" stroke-linejoin="round"/>
<path d="M738.259 255.204C743.797 255.204 747.139 254.746 751.352 255.204C756.28 255.739 760.162 258.016 763.354 260.979C766.547 263.943 765.947 267.479 765.947 271.417C765.947 274.042 766.066 277.103 765.947 279.729C765.748 284.108 764.056 288.917 763.354 292.854C762.524 297.508 760.146 303.387 757.892 308.167C754.203 315.994 751.274 323.873 744.113 329.874C738.214 334.817 731.048 338.809 723.157 341.418C720.973 342.14 708.055 343.604 700 342.729" stroke="black" stroke-width="6" stroke-linecap="round" stroke-linejoin="round"/>
<path d="M759 525.5C758.52 523.566 757.309 522.362 755.513 521.473C746.771 517.145 737.907 512.956 727.995 512.672C724.658 512.576 722.195 510.68 719.012 510.378C707.185 509.256 696.376 512.294 686.021 517.541C683.91 518.61 682.037 520.13 679.5 520" stroke="black" stroke-width="6" stroke-linecap="round" stroke-linejoin="round"/>
<path d="M818.25 687C820.401 699.259 819.982 711.637 820.021 724C820.062 737.045 820.068 750.117 822.588 762.983C823.143 765.818 822.211 768.894 824 771.5" stroke="black" stroke-width="6" stroke-linecap="round" stroke-linejoin="round"/>
<path d="M623.75 136C623.441 139.939 625.978 142.799 628.098 145.421C635.366 154.413 643.119 162.986 651.455 171.046C660.426 179.72 670.077 187.285 681.473 192.559C684.981 194.182 688.167 196.5 691.5 198.5" stroke="black" stroke-width="6" stroke-linecap="round" stroke-linejoin="round"/>
<path d="M731.5 91C731.341 90 731.081 82.2752 731.5 81C732.5 74 731.84 71.8567 729 65C727.5 55 726.5 53.5 723.5 46.5C720.714 40 718.686 37.5 716.5 32.5C712.545 23.4555 710 23.625 703 17.5C699 14 687 7 685 3" stroke="black" stroke-width="6" stroke-linecap="round" stroke-linejoin="round"/>
<path d="M616 134.5C615.832 135.333 615.906 136.13 615.582 137.03C612.712 144.981 607.16 151.333 602.925 158.455C598.866 165.281 595.777 172.417 593.459 179.988C590.29 190.339 589.065 201.111 586.382 211.598C583.885 221.359 577.23 236.374 576 246.5" stroke="black" stroke-width="6" stroke-linecap="round" stroke-linejoin="round"/>
<path d="M666 235C659.5 236.833 652.942 238.486 646.511 240.536C630.798 245.545 615.299 251.135 600.506 258.513C599.706 258.912 599 259.5 598.25 260" stroke="black" stroke-width="6" stroke-linecap="round" stroke-linejoin="round"/>
<path d="M529 264.5C529.023 259.835 526.77 257.129 522.56 254.887C506.981 246.591 490.724 240.004 473.987 234.539C470.924 233.538 467.695 233.045 464.588 232.328C463.834 233.834 463.167 235.167 462.5 236.5" stroke="black" stroke-width="6" stroke-linecap="round" stroke-linejoin="round"/>
<path d="M189.5 482C180.785 492.739 168.478 497.711 156.5 502.5C148.53 505.687 139.338 512.63 131.037 515.122C128.14 515.992 127.5 514.5 124 515.5" stroke="black" stroke-width="6" stroke-linecap="round" stroke-linejoin="round"/>
<path d="M252 488.5C244.714 485.781 235.851 478.409 231 472C229.85 470.481 217.484 467.168 215.975 466.561C208.994 463.752 209 463.5 202 460.549C199 459 195.5 458 190 456.5C185.5 455.273 181.902 454.648 179.5 454.5C174.341 454.183 170.816 457.271 167.55 460.549C165.433 462.674 166.398 470.061 169.018 473.487C172.333 477.821 177.085 477.603 182.5 479C185.121 479.676 195.532 483.153 197 486" stroke="black" stroke-width="6" stroke-linecap="round" stroke-linejoin="round"/>
<path d="M679.5 526C672.723 530.519 668.437 536.962 664.349 543.911C658.732 553.458 651.541 562.06 646.535 572.017C644.492 576.079 642.655 580.269 641.11 584.54C640.656 585.796 640.278 587.809 642 589" stroke="black" stroke-width="6" stroke-linecap="round" stroke-linejoin="round"/>
<path d="M130.5 428.5C124.913 427.805 112.573 431.181 107.573 432.735C107.573 440.5 132.831 426.856 130.5 424.5C127.144 421.108 91.6398 427.717 88.0854 429.657C83.1172 432.368 77.672 432.929 72.4662 434.379C61.9182 437.317 51.5097 440.417 41.4456 444.877C32.4247 448.875 24.3394 453.927 17.5013 461.001C15.4806 463.092 5.07951 473.839 4 476.5C13.1347 484.292 25.5 475.5 37.5 470C43 467.479 48.6551 463.993 53.5 463C57.0615 462.27 64.1955 460.473 67.5 458.5C73.645 454.832 73.8659 452.475 80.4909 450.96C87.4914 449.359 95.8914 446.25 102 442.5C105.042 440.633 110.3 437.788 111.5 435.054" stroke="black" stroke-width="6" stroke-linecap="round" stroke-linejoin="round"/>
<path d="M387 286C390.869 295.577 396.334 306.396 402.892 314.747C405.242 317.738 407.914 320.123 411.071 321.797C413.64 323.159 415.727 325.415 418.042 327.173C422.541 330.591 427.601 332.611 433 329.349" stroke="black" stroke-width="6" stroke-linecap="round" stroke-linejoin="round"/>
<path d="M421.5 246C412.303 243.174 407.441 243.081 399.572 250.919C394.823 255.65 390.118 259.935 388.448 267.078C387.303 271.976 385.346 279.516 386.217 284" stroke="black" stroke-width="6" stroke-linecap="round" stroke-linejoin="round"/>
<path d="M828.5 509.5C835.71 512.739 843.389 514.995 849.991 519.513C857.411 524.592 854.195 535.752 847.395 538.211C843.079 539.772 840.229 542.32 838.166 545.604C836.14 548.828 833.694 551.812 832 555.25" stroke="black" stroke-width="6" stroke-linecap="round" stroke-linejoin="round"/>
<path d="M676.5 201C684.735 201.601 687.979 208.08 691.459 214.024C700.39 229.284 705.267 246.302 711.756 262.597C714.105 268.494 713.748 275.491 714.455 282.005C714.694 284.211 714.942 286.297 716.5 288" stroke="black" stroke-width="6" stroke-linecap="round" stroke-linejoin="round"/>
<path d="M552.5 180.5C550.833 185.667 548.822 190.754 547.612 196.026C546.683 200.069 548.627 204.167 549.716 207.938C552.324 216.962 556.494 225.472 560.458 234.019C563.079 239.671 570.073 243.918 575.5 246.5" stroke="black" stroke-width="6" stroke-linecap="round" stroke-linejoin="round"/>
<path d="M700 343C700.87 348.649 689.988 365.894 687.5 370.5C681.416 381.764 674.296 387.223 666 396.5C663.978 398.761 655.25 403.194 652.5 404.5C645.625 407.763 641 410.5 634 412.5" stroke="black" stroke-width="6" stroke-linecap="round" stroke-linejoin="round"/>
<path d="M133 492C131.403 492.228 156 489 165 476.5C166.5 470 167.64 462.702 160.005 462.009C157.005 461.737 154.089 460.874 150.998 461.016C146.517 461.22 141.954 460.535 137.969 463.521C136.558 464.579 134.674 463.973 133 464.062" stroke="black" stroke-width="6" stroke-linecap="round" stroke-linejoin="round"/>
<path d="M101 368.5C101.162 377.262 98.8649 385.772 98.1758 394.474C97.6772 400.773 99.3733 406.828 98.5219 413.003C98.2711 414.822 98.8434 416.728 98 418.5" stroke="black" stroke-width="6" stroke-linecap="round" stroke-linejoin="round"/>
<path d="M132.25 429C130.846 435.097 131.969 441.309 133.632 446.886C134.691 450.437 134.021 453.43 133.842 456.491C133.258 466.501 133.454 476.505 133.623 486.498C133.697 490.881 131.578 495.037 132.908 499.527C133.514 501.575 133.484 508.675 132.25 510C129.339 513.125 129.756 513.54 123.5 515.5C121.5 516.5 119.97 518.502 117.016 519.083C110.945 520.277 107.358 525.851 109.103 531.468C109.879 533.966 110.79 536.337 111.066 538.993C111.391 542.115 113.895 543.252 116.474 542.419C127.417 538.885 138.356 535.363 149.497 532.487C153.645 531.416 157.567 528.983 162.119 531.808C162.949 532.323 165.333 530.333 167 529.5" stroke="black" stroke-width="6" stroke-linecap="round" stroke-linejoin="round"/>
<path d="M162 532.5C162.138 533.94 161.405 535.378 160.456 535.923C151.806 540.893 146.151 549.987 136.487 553.465C131 559.077 129 562 122.594 569.522C121.905 572.517 120.721 575.063 119.01 577.507C115.091 583.106 117.575 588.524 124.503 589.478C125.648 589.635 127.139 589.962 127.951 589.426C133.822 585.551 139.333 584.19 142.5 576.5C143.056 575.15 149.732 570.075 151 569.522C158.368 566.306 159.541 563.238 166.049 559.077C167.929 557.875 168.323 556.215 169 554.5" stroke="black" stroke-width="6" stroke-linecap="round" stroke-linejoin="round"/>
<path d="M685 3C682.083 10.0835 690.541 19.3616 694.697 23.2911C702.155 30.342 700.565 44.7026 695 54" stroke="black" stroke-width="6" stroke-linecap="round" stroke-linejoin="round"/>
<path d="M833.5 451C837.151 455.85 843.879 455.276 848.147 459.346C849.613 460.744 851.681 461.732 853.591 463.65C847.361 471.609 836.862 472.266 829.887 478.603C831.46 484.544 837.431 484.57 841.577 486.861C843.722 488.046 846.256 488.587 847.99 490.509C850.198 492.956 849.818 496.18 846.983 497.973C843.892 499.927 840.817 502.043 837.456 503.39C834.331 504.643 832.349 506.615 831 509.5" stroke="black" stroke-width="6" stroke-linecap="round" stroke-linejoin="round"/>
<path d="M41 372.5C41.3846 378.409 40.5016 384.238 39.4357 389.988C37.6725 399.5 39.1736 409 39 418.5" stroke="black" stroke-width="6" stroke-linecap="round" stroke-linejoin="round"/>
<path d="M77.5 363.5C73.5255 371.805 68.9665 379.908 67.0563 389.012C65.2277 397.726 61.9988 406.357 64.0558 415.487C64.6568 418.155 65.1633 421.308 69 421.5" stroke="black" stroke-width="6" stroke-linecap="round" stroke-linejoin="round"/>
<path d="M661.5 281.5C656.222 283.998 650.483 282.636 644.984 283.386C637.866 284.357 630.74 285.723 623.501 285.469C619.828 285.34 616.167 283.389 612.5 285.5" stroke="black" stroke-width="6" stroke-linecap="round" stroke-linejoin="round"/>
<path d="M174 455C171.512 447.647 171.493 447.407 163.005 448.065C153.84 448.776 144.567 447.961 135.5 450" stroke="black" stroke-width="6" stroke-linecap="round" stroke-linejoin="round"/>
<path d="M346.5 205C350.782 205.896 355.283 206.311 358.017 210.489C358.396 211.068 358.91 211.728 359.513 211.966C369.584 215.944 378.178 222.121 386.028 229.47C387.487 230.836 403.945 245.795 406 245.5" stroke="black" stroke-width="6" stroke-linecap="round" stroke-linejoin="round"/>
<path d="M662 274.5C655.998 275.945 650.583 276.418 644.822 272.246C640.315 268.984 634.378 265.536 628.483 270.982C626.938 272.41 624.877 271.851 623.002 272.017C612.255 272.967 601.512 274.098 591.551 278.613C590.018 279.308 588.666 277.495 587.5 279" stroke="black" stroke-width="6" stroke-linecap="round" stroke-linejoin="round"/>
<path d="M830.75 163C822.167 172.014 815.443 182.737 805.497 190.496C802.685 192.69 799.855 194.863 796.992 196.989C795.333 198.221 793.334 199.112 793 201.5" stroke="black" stroke-width="6" stroke-linecap="round" stroke-linejoin="round"/>
<path d="M784 202C791.854 201.752 798.997 204.361 805.997 207.507C809.893 209.259 813.995 208.415 818 208.45C823.456 208.497 828.93 208.149 831.536 214.485C831.584 214.603 832.167 214.5 832.5 214.5" stroke="black" stroke-width="6" stroke-linecap="round" stroke-linejoin="round"/>
<path d="M175.5 479C172 486 159.249 495.557 151.809 499.098C146.235 501.751 139.696 504.031 133 504" stroke="black" stroke-width="6" stroke-linecap="round" stroke-linejoin="round"/>
<path d="M786.5 160.5C788.728 163.12 793.645 162.63 796.992 163.059C800.028 163.448 802.975 164.501 806.006 164.958C809.838 165.535 813.62 166.17 817.539 164.599C820.715 163.326 827.134 160.656 830 163.059" stroke="black" stroke-width="6" stroke-linecap="round" stroke-linejoin="round"/>
<path d="M827.5 132.5C822.181 138.01 811.882 141.761 805.462 145.434C798.865 149.208 797.5 156.5 786.5 160" stroke="black" stroke-width="6" stroke-linecap="round" stroke-linejoin="round"/>
<path d="M581.5 367.5C576.968 369.955 572.082 370.597 567 370.523C559.152 370.408 551.31 370.629 543.5 371.5" stroke="black" stroke-width="6" stroke-linecap="round" stroke-linejoin="round"/>
<path d="M439.5 195.5C436.374 204.934 432.5 213 430.5 223.5C429.833 227 426.435 253.779 426 255.5" stroke="black" stroke-width="6" stroke-linecap="round" stroke-linejoin="round"/>
<path d="M526.5 275.5C526.221 272.029 523.923 271.235 521.002 271.517C513.837 272.208 506.569 273.267 499.512 273.073C495.209 272.955 490.58 271.143 486.006 271.565C477.652 272.336 469.333 273.5 461 274.5" stroke="black" stroke-width="6" stroke-linecap="round" stroke-linejoin="round"/>
<path d="M213 577.5C206.595 581.863 200.653 579.257 195.034 575.942C187.859 571.71 183.739 572.232 177.431 577.415C170.367 583.22 164.275 589.183 159 596.5C157.879 598.055 155.5 599.214 152.5 600.5C149 602 143.5 603 143.5 595.5C144.62 592.147 161.965 567.095 161.5 564" stroke="black" stroke-width="6" stroke-linecap="round" stroke-linejoin="round"/>
<path d="M389.5 174C386.107 174.881 384.431 177.071 383.403 180.471C381.568 186.536 376.126 190.142 372.407 194.927C368.15 200.404 362.292 204.231 356.5 208" stroke="black" stroke-width="6" stroke-linecap="round" stroke-linejoin="round"/>
<path d="M496.5 275C493.976 278.035 490.235 277.207 487.002 278.008C478.932 280.006 470.785 281.737 463 284.75" stroke="black" stroke-width="6" stroke-linecap="round" stroke-linejoin="round"/>
<path d="M422 263.47C417.2 262.652 412.406 261.758 407.597 261.057C405.936 260.815 404.284 261.352 402.802 262.492C401.311 263.638 399.718 264.152 398 263.961" stroke="black" stroke-width="6" stroke-linecap="round" stroke-linejoin="round"/>
<path d="M528.5 281.5C520.6 283.297 512.565 284.026 504.5 284.498C497.31 284.919 490.139 285.417 482.986 286.399C479.307 286.904 476.151 287.941 473.495 290.495C473.367 290.618 473.167 290.667 473 290.75C473.083 290.833 473.167 290.917 473.25 291" stroke="black" stroke-width="6" stroke-linecap="round" stroke-linejoin="round"/>
<path d="M112 429C101.718 436.381 88.5573 438.023 76.9551 442.798C70.6918 445.376 66.095 448.178 64 454" stroke="black" stroke-width="6" stroke-linecap="round" stroke-linejoin="round"/>
<path d="M57 453C46.7175 460.381 33.5573 462.023 21.9551 466.798C15.6918 469.376 11.095 472.178 9 478" stroke="black" stroke-width="6" stroke-linecap="round" stroke-linejoin="round"/>
<path d="M70 450C59.7175 457.381 46.5573 459.023 34.9551 463.798C28.6918 466.376 24.095 469.178 22 475" stroke="black" stroke-width="6" stroke-linecap="round" stroke-linejoin="round"/>
<path d="M549.25 466C547.833 474.5 546.401 482.997 545.017 491.503C544.802 492.823 544.405 494.007 543.5 495" stroke="black" stroke-width="6" stroke-linecap="round" stroke-linejoin="round"/>
<path d="M474 14C469.866 25.392 472.271 35.7113 479.583 44.9341C481.892 47.8467 484.841 50.3149 487.851 52.6888C489.684 54.1342 490.964 53.3297 492.5 53.5" stroke="black" stroke-width="6" stroke-linecap="round" stroke-linejoin="round"/>
<path d="M546.5 198.5C541.295 200.585 540.835 205.634 539.556 210.016C537.664 216.498 533.088 222.226 534 229.5" stroke="black" stroke-width="6" stroke-linecap="round" stroke-linejoin="round"/>
<path d="M743.5 276C755.5 293 717.5 323 717.5 323C717.5 323 724.5 308 721 305C718.5 301.5 713.167 303 711 303.75" stroke="black" stroke-width="6" stroke-linecap="round" stroke-linejoin="round"/>
<path d="M643.5 275C638.685 277.697 633.241 278.167 627.979 278.84C624.871 279.238 622.177 279.694 620 282" stroke="black" stroke-width="6" stroke-linecap="round" stroke-linejoin="round"/>
<path d="M353.5 159.5C357.574 160.004 361.232 160.962 364.596 163.89C370.537 169.064 377.389 173.044 384.5 176.5" stroke="black" stroke-width="6" stroke-linecap="round" stroke-linejoin="round"/>
<path d="M742.75 235C739.847 244.848 735.612 254.34 732.909 264.113C730.089 274.305 723.171 280.648 717.002 288.002C715.035 290.347 715.362 293.847 713 296" stroke="black" stroke-width="6" stroke-linecap="round" stroke-linejoin="round"/>
<path d="M421 290C416.569 291.232 416.929 290.524 416.377 298.207C416.239 300.135 416.125 302.069 416 304" stroke="black" stroke-width="6" stroke-linecap="round" stroke-linejoin="round"/>
<path d="M595.5 268.5C605.973 265.434 616.516 262.889 627.482 265.572C629.021 265.948 631.114 266.238 631.5 268.5" stroke="black" stroke-width="6" stroke-linecap="round" stroke-linejoin="round"/>
<path d="M753.5 266C743.5 264.5 739.5 268.5 732 271" stroke="black" stroke-width="6" stroke-linecap="round" stroke-linejoin="round"/>
<path d="M634.303 412.891C635.633 420.112 640.423 421.261 644.776 425.305" stroke="black" stroke-width="6" stroke-linecap="round" stroke-linejoin="round"/>
<path d="M728 369C725.257 367.944 709.928 374.793 707 376.5C703.698 378.424 690.667 377.792 687 375.5" stroke="black" stroke-width="6" stroke-linecap="round" stroke-linejoin="round"/>
<path d="M47 447.468C53.425 450.894 58.9706 451.39 64.8014 443.524C69.145 437.664 76.5524 436.487 83.3549 435.331" stroke="black" stroke-width="6" stroke-linecap="round" stroke-linejoin="round"/>
<path d="M136.5 538C135.12 536.75 136.5 550 121.086 563.536C116.629 566.907 111.962 569.876 107.027 572.474C106.491 572.756 106.333 573.756 106 574.422" stroke="black" stroke-width="6" stroke-linecap="round" stroke-linejoin="round"/>
<path d="M402.5 290C405.5 295 414.058 305.255 420.145 305.98C421.079 306.091 422.048 305.706 423 305.55" stroke="black" stroke-width="6" stroke-linecap="round" stroke-linejoin="round"/>
<path d="M611.75 286.5C609.447 283.379 608.977 283.097 605.51 284.036C603.126 284.681 600.833 285.667 598.5 286.5" stroke="black" stroke-width="6" stroke-linecap="round" stroke-linejoin="round"/>
<path d="M707 345C707.683 350.835 709.046 356.335 711.5 361C712.038 362.023 725.333 368.833 727.5 369" stroke="black" stroke-width="6" stroke-linecap="round" stroke-linejoin="round"/>
<path d="M649.5 263.5C646.5 264.667 643.5 265.833 640.5 267" stroke="black" stroke-width="6" stroke-linecap="round" stroke-linejoin="round"/>
<path d="M28.1071 461.367C36.8244 455.911 45.5419 450.456 54.2593 445" stroke="black" stroke-width="6" stroke-linecap="round" stroke-linejoin="round"/>
</svg>
